<svg class="railroad-diagram" height="139" viewBox="0 0 1158.0 139" width="1158.0" xmlns="http://www.w3.org/2000/svg" xmlns:xlink="http://www.w3.org/1999/xlink">
<g>
<style>/* <![CDATA[ */
	svg.railroad-diagram {
		background-color: white;
	}
	svg.railroad-diagram path {
		stroke-width:2;
		stroke:black;
		fill: rgba(255, 255, 255, 1.0);
	}
	svg.railroad-diagram text {
		font:bold 14px monospace;
		text-anchor:middle;
	}
	svg.railroad-diagram text.arrow {
		font:bold 24px monospace;
		text-anchor:middle;
	}
	svg.railroad-diagram text.label{
		text-anchor:start;
	}
	svg.railroad-diagram text.comment{
		font:italic 12px monospace;
	}
	svg.railroad-diagram rect{
		stroke-width:2;
		stroke:black;
		fill:white;
	}

/* ]]> */
</style><g>
<path d="M20 38v20m10 -20v20m-10 -10h20"></path></g><path d="M40 48h10"></path><g class="terminal">
<path d="M50 48h0.0"></path><path d="M95.5 48h0.0"></path><rect height="22" rx="10" ry="10" width="45.5" x="50.0" y="37"></rect><a xlink:href="skip"><text x="72.75" y="52">try</text><text x="72.75" y="52">try</text></a></g><path d="M95.5 48h10"></path><path d="M105.5 48h10"></path><g class="terminal">
<path d="M115.5 48h0.0"></path><path d="M144.0 48h0.0"></path><rect height="22" rx="10" ry="10" width="28.5" x="115.5" y="37"></rect><text x="129.75" y="52">:</text></g><path d="M144.0 48h10"></path><path d="M154.0 48h10"></path><g class="non-terminal">
<path d="M164.0 48h0.0"></path><path d="M226.5 48h0.0"></path><rect height="22" width="62.5" x="164.0" y="37"></rect><text x="195.25" y="52">suite</text></g><path d="M226.5 48h10"></path><g>
<path d="M236.5 48h0.0"></path><path d="M1118.0 48h0.0"></path><path d="M236.5 48h20"></path><g>
<path d="M256.5 48h0.0"></path><path d="M1098.0 48h0.0"></path><g>
<path d="M256.5 48h0.0"></path><path d="M612.5 48h0.0"></path><path d="M256.5 48h10"></path><g>
<path d="M266.5 48h0.0"></path><path d="M602.5 48h0.0"></path><g class="terminal">
<path d="M266.5 48h0.0"></path><path d="M337.5 48h0.0"></path><rect height="22" rx="10" ry="10" width="71.0" x="266.5" y="37"></rect><text x="302.0" y="52">except</text></g><path d="M337.5 48h10"></path><g>
<path d="M347.5 48h0.0"></path><path d="M602.5 48h0.0"></path><path d="M347.5 48a10 10 0 0 0 10 -10v-8a10 10 0 0 1 10 -10"></path><g>
<path d="M367.5 20h215.0"></path></g><path d="M582.5 20a10 10 0 0 1 10 10v8a10 10 0 0 0 10 10"></path><path d="M347.5 48h20"></path><g>
<path d="M367.5 48h0.0"></path><path d="M582.5 48h0.0"></path><g class="non-terminal">
<path d="M367.5 48h0.0"></path><path d="M421.5 48h0.0"></path><rect height="22" width="54.0" x="367.5" y="37"></rect><text x="394.5" y="52">test</text></g><path d="M421.5 48h10"></path><g>
<path d="M431.5 48h0.0"></path><path d="M582.5 48h0.0"></path><path d="M431.5 48a10 10 0 0 0 10 -10v0a10 10 0 0 1 10 -10"></path><g>
<path d="M451.5 28h111.0"></path></g><path d="M562.5 28a10 10 0 0 1 10 10v0a10 10 0 0 0 10 10"></path><path d="M431.5 48h20"></path><g>
<path d="M451.5 48h0.0"></path><path d="M562.5 48h0.0"></path><g class="terminal">
<path d="M451.5 48h0.0"></path><path d="M488.5 48h0.0"></path><rect height="22" rx="10" ry="10" width="37.0" x="451.5" y="37"></rect><text x="470.0" y="52">as</text></g><path d="M488.5 48h10"></path><path d="M498.5 48h10"></path><g class="non-terminal">
<path d="M508.5 48h0.0"></path><path d="M562.5 48h0.0"></path><rect height="22" width="54.0" x="508.5" y="37"></rect><text x="535.5" y="52">NAME</text></g></g><path d="M562.5 48h20"></path></g></g><path d="M582.5 48h20"></path></g></g><path d="M602.5 48h10"></path><path d="M266.5 48a10 10 0 0 0 -10 10v10a10 10 0 0 0 10 10"></path><g class="arrow">
<path d="M266.5 78h182.25"></path><path d="M448.75 78h153.75"></path><text class="arrow" x="434.5" y="86">&#60;</text></g><path d="M602.5 78a10 10 0 0 0 10 -10v-10a10 10 0 0 0 -10 -10"></path></g><path d="M612.5 48h10"></path><g>
<path d="M622.5 48h0.0"></path><path d="M847.5 48h0.0"></path><path d="M622.5 48a10 10 0 0 0 10 -10v0a10 10 0 0 1 10 -10"></path><g>
<path d="M642.5 28h185.0"></path></g><path d="M827.5 28a10 10 0 0 1 10 10v0a10 10 0 0 0 10 10"></path><path d="M622.5 48h20"></path><g>
<path d="M642.5 48h0.0"></path><path d="M827.5 48h0.0"></path><g class="terminal">
<path d="M642.5 48h0.0"></path><path d="M696.5 48h0.0"></path><rect height="22" rx="10" ry="10" width="54.0" x="642.5" y="37"></rect><text x="669.5" y="52">else</text></g><path d="M696.5 48h10"></path><path d="M706.5 48h10"></path><g class="terminal">
<path d="M716.5 48h0.0"></path><path d="M745.0 48h0.0"></path><rect height="22" rx="10" ry="10" width="28.5" x="716.5" y="37"></rect><text x="730.75" y="52">:</text></g><path d="M745.0 48h10"></path><path d="M755.0 48h10"></path><g class="non-terminal">
<path d="M765.0 48h0.0"></path><path d="M827.5 48h0.0"></path><rect height="22" width="62.5" x="765.0" y="37"></rect><text x="796.25" y="52">suite</text></g></g><path d="M827.5 48h20"></path></g><g>
<path d="M847.5 48h0.0"></path><path d="M1098.0 48h0.0"></path><path d="M847.5 48a10 10 0 0 0 10 -10v0a10 10 0 0 1 10 -10"></path><g>
<path d="M867.5 28h210.5"></path></g><path d="M1078.0 28a10 10 0 0 1 10 10v0a10 10 0 0 0 10 10"></path><path d="M847.5 48h20"></path><g>
<path d="M867.5 48h0.0"></path><path d="M1078.0 48h0.0"></path><g class="terminal">
<path d="M867.5 48h0.0"></path><path d="M947.0 48h0.0"></path><rect height="22" rx="10" ry="10" width="79.5" x="867.5" y="37"></rect><text x="907.25" y="52">finally</text></g><path d="M947.0 48h10"></path><path d="M957.0 48h10"></path><g class="terminal">
<path d="M967.0 48h0.0"></path><path d="M995.5 48h0.0"></path><rect height="22" rx="10" ry="10" width="28.5" x="967.0" y="37"></rect><text x="981.25" y="52">:</text></g><path d="M995.5 48h10"></path><path d="M1005.5 48h10"></path><g class="non-terminal">
<path d="M1015.5 48h0.0"></path><path d="M1078.0 48h0.0"></path><rect height="22" width="62.5" x="1015.5" y="37"></rect><text x="1046.75" y="52">suite</text></g></g><path d="M1078.0 48h20"></path></g></g><path d="M1098.0 48h20"></path><path d="M236.5 48a10 10 0 0 1 10 10v40a10 10 0 0 0 10 10"></path><g>
<path d="M256.5 108h315.5"></path><path d="M782.5 108h315.5"></path><g class="terminal">
<path d="M572.0 108h0.0"></path><path d="M651.5 108h0.0"></path><rect height="22" rx="10" ry="10" width="79.5" x="572.0" y="97"></rect><text x="611.75" y="112">finally</text></g><path d="M651.5 108h10"></path><path d="M661.5 108h10"></path><g class="terminal">
<path d="M671.5 108h0.0"></path><path d="M700.0 108h0.0"></path><rect height="22" rx="10" ry="10" width="28.5" x="671.5" y="97"></rect><text x="685.75" y="112">:</text></g><path d="M700.0 108h10"></path><path d="M710.0 108h10"></path><g class="non-terminal">
<path d="M720.0 108h0.0"></path><path d="M782.5 108h0.0"></path><rect height="22" width="62.5" x="720.0" y="97"></rect><text x="751.25" y="112">suite</text></g></g><path d="M1098.0 108a10 10 0 0 0 10 -10v-40a10 10 0 0 1 10 -10"></path></g><path d="M 1118.0 48 h 20 m -10 -10 v 20 m 10 -20 v 20"></path></g></svg>